<?xml version="1.0" encoding="UTF-8"?>
<!DOCTYPE svg PUBLIC "-//W3C//DTD SVG 1.1//EN" "http://www.w3.org/Graphics/SVG/1.1/DTD/svg11.dtd">
<svg xmlns="http://www.w3.org/2000/svg" version="1.1" width="750px" height="750px" style="shape-rendering:geometricPrecision; text-rendering:geometricPrecision; image-rendering:optimizeQuality; fill-rule:evenodd; clip-rule:evenodd" xmlns:xlink="http://www.w3.org/1999/xlink">
<g><path style="opacity:0.999" fill="#d5dbe4" d="M 88.5,-0.5 C 279.167,-0.5 469.833,-0.5 660.5,-0.5C 709.378,9.37792 739.045,38.7112 749.5,87.5C 749.5,278.833 749.5,470.167 749.5,661.5C 739.045,710.289 709.378,739.622 660.5,749.5C 469.833,749.5 279.167,749.5 88.5,749.5C 39.622,739.622 9.9553,710.289 -0.5,661.5C -0.5,470.167 -0.5,278.833 -0.5,87.5C 9.9553,38.7112 39.622,9.37792 88.5,-0.5 Z"/></g>
<g><path style="opacity:1" fill="#030204" d="M 143.5,510.5 C 144.972,506.081 145.638,501.414 145.5,496.5C 147.65,484.884 149.983,473.217 152.5,461.5C 153.167,462.5 153.833,463.5 154.5,464.5C 154.5,465.833 154.5,467.167 154.5,468.5C 154.906,475.39 155.906,482.057 157.5,488.5C 157.677,492.861 159.01,496.861 161.5,500.5C 161.823,497.295 161.823,493.962 161.5,490.5C 161.326,483.465 161.659,476.465 162.5,469.5C 163.549,462.353 165.215,455.353 167.5,448.5C 167.423,458.156 167.757,467.823 168.5,477.5C 168.238,478.978 168.571,480.311 169.5,481.5C 170.466,479.604 170.799,477.604 170.5,475.5C 172.237,471.458 173.237,467.124 173.5,462.5C 173.5,461.167 173.5,459.833 173.5,458.5C 174.768,456.095 175.435,453.428 175.5,450.5C 177.334,436.996 180,423.663 183.5,410.5C 185.277,407.495 186.277,404.162 186.5,400.5C 190.566,387.699 196.733,376.033 205,365.5C 219.595,347.402 235.095,330.069 251.5,313.5C 252.315,323.68 253.149,334.013 254,344.5C 254.232,345.737 254.732,346.737 255.5,347.5C 256.075,352.397 257.908,356.73 261,360.5C 260.381,350.701 259.881,340.868 259.5,331C 258.615,307.34 264.781,285.84 278,266.5C 303.085,235.746 332.252,209.58 365.5,188C 366.635,187.251 367.635,187.417 368.5,188.5C 366.091,195.941 363.758,203.274 361.5,210.5C 360.105,214.591 359.438,218.924 359.5,223.5C 358.082,227.193 358.415,230.86 360.5,234.5C 361.474,232.257 361.808,229.924 361.5,227.5C 361.5,227.167 361.5,226.833 361.5,226.5C 362.946,223.746 363.946,220.746 364.5,217.5C 367.087,200.487 374.753,186.321 387.5,175C 402.675,166.579 418.008,158.412 433.5,150.5C 433.833,150.833 434.167,151.167 434.5,151.5C 429.89,161.403 426.39,171.736 424,182.5C 422.701,188.119 422.368,193.786 423,199.5C 433.347,175.526 446.514,153.359 462.5,133C 484.407,121.641 507.407,113.141 531.5,107.5C 533.403,107.204 535.07,106.537 536.5,105.5C 539.829,105.785 542.829,105.118 545.5,103.5C 555.779,100.694 566.112,99.3602 576.5,99.5C 568.16,112.529 560.66,125.862 554,139.5C 565.751,128.084 577.085,116.418 588,104.5C 583.199,113.567 577.699,122.4 571.5,131C 584.584,123.967 597.251,115.967 609.5,107C 610.167,106.333 610.833,106.333 611.5,107C 586.95,129.264 560.95,149.598 533.5,168C 463.643,203.249 398.643,245.583 338.5,295C 321.598,311.899 305.431,329.399 290,347.5C 239.628,411.213 194.462,478.546 154.5,549.5C 151.833,550.833 149.167,550.833 146.5,549.5C 145.902,548.205 145.402,546.872 145,545.5C 143.613,533.887 143.113,522.221 143.5,510.5 Z"/></g>
<g><path style="opacity:1" fill="#6c6f74" d="M 545.5,103.5 C 542.829,105.118 539.829,105.785 536.5,105.5C 539.273,104.343 542.273,103.676 545.5,103.5 Z"/></g>
<g><path style="opacity:1" fill="#676a6f" d="M 536.5,105.5 C 535.07,106.537 533.403,107.204 531.5,107.5C 532.635,105.787 534.302,105.12 536.5,105.5 Z"/></g>
<g><path style="opacity:1" fill="#030204" d="M 622.5,154.5 C 623.489,159.975 623.822,165.642 623.5,171.5C 615.003,176.58 606.003,180.913 596.5,184.5C 591.607,185.796 586.94,187.462 582.5,189.5C 581.391,189.557 580.391,189.89 579.5,190.5C 574.905,191.815 570.239,192.815 565.5,193.5C 563.199,194.06 560.866,194.56 558.5,195C 561.367,195.801 564.034,195.634 566.5,194.5C 573.422,194.344 580.089,193.344 586.5,191.5C 587.833,191.5 589.167,191.5 590.5,191.5C 593.01,191.073 595.343,190.407 597.5,189.5C 597.833,189.5 598.167,189.5 598.5,189.5C 601.152,189.59 603.485,188.924 605.5,187.5C 610.066,185.858 614.733,184.525 619.5,183.5C 618.172,187.967 616.338,192.3 614,196.5C 602.646,205.761 589.813,212.261 575.5,216C 564.326,218.918 552.993,221.085 541.5,222.5C 536.141,222.67 530.808,223.17 525.5,224C 528.757,225.043 532.09,225.543 535.5,225.5C 557.602,226.029 579.269,223.362 600.5,217.5C 594.588,240.479 582.254,259.312 563.5,274C 558.254,276.459 552.921,278.625 547.5,280.5C 542.856,281.599 538.522,283.266 534.5,285.5C 532.901,285.232 531.568,285.566 530.5,286.5C 525.478,287.505 520.478,288.672 515.5,290C 516.5,290.167 517.5,290.333 518.5,290.5C 527.351,289.423 536.017,288.089 544.5,286.5C 546.5,286.167 548.5,285.833 550.5,285.5C 551.791,285.263 552.791,285.596 553.5,286.5C 541.795,292.288 529.795,297.288 517.5,301.5C 515.821,301.892 514.154,302.392 512.5,303C 514.712,303.789 516.712,303.622 518.5,302.5C 526.848,301.414 535.181,300.581 543.5,300C 530.072,314.08 514.405,325.08 496.5,333C 463.545,347.26 429.212,356.594 393.5,361C 383.839,361.5 374.172,361.666 364.5,361.5C 357.443,360.17 350.443,360.504 343.5,362.5C 340.273,362.676 337.273,363.343 334.5,364.5C 330.926,364.691 327.593,365.691 324.5,367.5C 325,367.833 325.5,368.167 326,368.5C 329.324,367.95 332.491,367.283 335.5,366.5C 353.79,365.31 371.79,366.81 389.5,371C 413.332,372.37 436.998,371.203 460.5,367.5C 462.415,367.216 464.081,367.549 465.5,368.5C 455.108,391.726 438.441,408.893 415.5,420C 405.437,423.841 395.437,427.675 385.5,431.5C 379.075,433.08 373.075,435.413 367.5,438.5C 357.277,441.306 346.943,443.639 336.5,445.5C 329.029,446.506 321.695,447.506 314.5,448.5C 311.287,448.19 308.287,448.523 305.5,449.5C 300.872,449.116 296.539,449.95 292.5,452C 311.671,452.829 330.671,452.662 349.5,451.5C 349.833,451.5 350.167,451.5 350.5,451.5C 353.829,451.785 356.829,451.118 359.5,449.5C 368.123,446.904 376.79,444.404 385.5,442C 349.494,465.502 311.494,485.002 271.5,500.5C 261.699,502.407 252.032,504.407 242.5,506.5C 232.186,507.745 222.186,510.245 212.5,514C 211.748,514.671 211.414,515.504 211.5,516.5C 211.917,517.124 212.584,517.457 213.5,517.5C 216.475,516.861 219.475,516.361 222.5,516C 223.056,515.617 223.389,515.117 223.5,514.5C 228.415,513.44 233.415,512.606 238.5,512C 251.536,511.853 264.536,511.187 277.5,510C 292.191,504.557 306.524,498.557 320.5,492C 298.557,510.472 273.89,523.972 246.5,532.5C 243.848,532.41 241.515,533.076 239.5,534.5C 229.154,537.559 218.821,540.726 208.5,544C 204.025,545.402 200.025,547.569 196.5,550.5C 190.974,550.821 185.64,550.488 180.5,549.5C 239.593,438.878 318.927,345.045 418.5,268C 475.432,231.703 530.432,192.703 583.5,151C 594.132,142.037 604.465,132.703 614.5,123C 618.485,124.316 621.318,127.149 623,131.5C 623.667,135.167 623.667,138.833 623,142.5C 611.167,150.333 599.333,158.167 587.5,166C 591.853,165.446 596.186,164.446 600.5,163C 607.796,160.068 615.129,157.235 622.5,154.5 Z"/></g>
<g><path style="opacity:1" fill="#09090b" d="M 582.5,141.5 C 583.239,141.369 583.906,141.536 584.5,142C 566.784,156.051 548.784,169.717 530.5,183C 492.822,207.504 455.489,232.504 418.5,258C 335.766,322.757 266.266,399.257 210,487.5C 196.081,510.335 182.415,533.335 169,556.5C 167.462,561.615 165.628,566.615 163.5,571.5C 162.277,572.614 160.944,572.781 159.5,572C 157.045,570.688 154.545,569.522 152,568.5C 197.803,482.009 253.136,402.009 318,328.5C 339.342,306.148 362.176,285.648 386.5,267C 403.99,254.088 421.657,241.421 439.5,229C 483.571,201.936 527.904,175.269 572.5,149C 576.08,146.723 579.414,144.223 582.5,141.5 Z"/></g>
<g><path style="opacity:1" fill="#404144" d="M 622.5,154.5 C 622.56,153.957 622.893,153.624 623.5,153.5C 624.817,159.654 624.817,165.654 623.5,171.5C 623.822,165.642 623.489,159.975 622.5,154.5 Z"/></g>
<g><path style="opacity:1" fill="#93979e" d="M 596.5,184.5 C 592.37,187.324 587.703,188.991 582.5,189.5C 586.94,187.462 591.607,185.796 596.5,184.5 Z"/></g>
<g><path style="opacity:1" fill="#5f6267" d="M 605.5,187.5 C 603.485,188.924 601.152,189.59 598.5,189.5C 600.515,188.076 602.848,187.41 605.5,187.5 Z"/></g>
<g><path style="opacity:1" fill="#84888e" d="M 597.5,189.5 C 595.343,190.407 593.01,191.073 590.5,191.5C 590.611,190.883 590.944,190.383 591.5,190C 593.473,189.505 595.473,189.338 597.5,189.5 Z"/></g>
<g><path style="opacity:1" fill="#adb2ba" d="M 579.5,190.5 C 581.607,191.468 583.941,191.802 586.5,191.5C 580.089,193.344 573.422,194.344 566.5,194.5C 565.833,194.5 565.5,194.167 565.5,193.5C 570.239,192.815 574.905,191.815 579.5,190.5 Z"/></g>
<g><path style="opacity:1" fill="#616368" d="M 565.5,193.5 C 565.5,194.167 565.833,194.5 566.5,194.5C 564.034,195.634 561.367,195.801 558.5,195C 560.866,194.56 563.199,194.06 565.5,193.5 Z"/></g>
<g><path style="opacity:1" fill="#898c92" d="M 361.5,210.5 C 361.556,215.731 360.889,220.731 359.5,225.5C 359.5,224.833 359.5,224.167 359.5,223.5C 359.438,218.924 360.105,214.591 361.5,210.5 Z"/></g>
<g><path style="opacity:1" fill="#787b80" d="M 364.5,217.5 C 363.946,220.746 362.946,223.746 361.5,226.5C 361.446,223.008 362.446,220.008 364.5,217.5 Z"/></g>
<g><path style="opacity:1" fill="#9b9fa6" d="M 541.5,222.5 C 539.369,223.314 537.036,223.814 534.5,224C 535.056,224.383 535.389,224.883 535.5,225.5C 532.09,225.543 528.757,225.043 525.5,224C 530.808,223.17 536.141,222.67 541.5,222.5 Z"/></g>
<g><path style="opacity:1" fill="#3c3d40" d="M 359.5,223.5 C 359.5,224.167 359.5,224.833 359.5,225.5C 359.34,227.199 359.506,228.866 360,230.5C 360.232,229.263 360.732,228.263 361.5,227.5C 361.808,229.924 361.474,232.257 360.5,234.5C 358.415,230.86 358.082,227.193 359.5,223.5 Z"/></g>
<g><path style="opacity:1" fill="#969aa0" d="M 547.5,280.5 C 547.389,281.117 547.056,281.617 546.5,282C 542.553,283.484 538.553,284.65 534.5,285.5C 538.522,283.266 542.856,281.599 547.5,280.5 Z"/></g>
<g><path style="opacity:1" fill="#6a6d72" d="M 553.5,286.5 C 552.791,285.596 551.791,285.263 550.5,285.5C 552.6,283.727 554.934,283.394 557.5,284.5C 556.423,285.705 555.09,286.372 553.5,286.5 Z"/></g>
<g><path style="opacity:1" fill="#8f9399" d="M 530.5,286.5 C 534.989,287.217 539.656,287.217 544.5,286.5C 536.017,288.089 527.351,289.423 518.5,290.5C 517.5,290.333 516.5,290.167 515.5,290C 520.478,288.672 525.478,287.505 530.5,286.5 Z"/></g>
<g><path style="opacity:1" fill="#868a90" d="M 517.5,301.5 C 517.5,302.167 517.833,302.5 518.5,302.5C 516.712,303.622 514.712,303.789 512.5,303C 514.154,302.392 515.821,301.892 517.5,301.5 Z"/></g>
<g><path style="opacity:1" fill="#7e8187" d="M 251.5,313.5 C 251.56,312.957 251.893,312.624 252.5,312.5C 253.279,324.196 254.279,335.863 255.5,347.5C 254.732,346.737 254.232,345.737 254,344.5C 253.149,334.013 252.315,323.68 251.5,313.5 Z"/></g>
<g><path style="opacity:1" fill="#90949a" d="M 364.5,361.5 C 357.49,361.668 350.49,362.001 343.5,362.5C 350.443,360.504 357.443,360.17 364.5,361.5 Z"/></g>
<g><path style="opacity:1" fill="#8f9399" d="M 334.5,364.5 C 333.737,365.268 332.737,365.768 331.5,366C 332.793,366.49 334.127,366.657 335.5,366.5C 332.491,367.283 329.324,367.95 326,368.5C 325.5,368.167 325,367.833 324.5,367.5C 327.593,365.691 330.926,364.691 334.5,364.5 Z"/></g>
<g><path style="opacity:1" fill="#85898f" d="M 465.5,368.5 C 464.081,367.549 462.415,367.216 460.5,367.5C 462.686,366.035 465.019,365.702 467.5,366.5C 467.145,367.522 466.478,368.189 465.5,368.5 Z"/></g>
<g><path style="opacity:1" fill="#54575b" d="M 186.5,400.5 C 186.277,404.162 185.277,407.495 183.5,410.5C 183.723,406.838 184.723,403.505 186.5,400.5 Z"/></g>
<g><path style="opacity:1" fill="#9ea2a9" d="M 385.5,431.5 C 379.925,434.587 373.925,436.92 367.5,438.5C 373.075,435.413 379.075,433.08 385.5,431.5 Z"/></g>
<g><path style="opacity:1" fill="#8d9197" d="M 336.5,445.5 C 329.505,447.924 322.172,448.924 314.5,448.5C 321.695,447.506 329.029,446.506 336.5,445.5 Z"/></g>
<g><path style="opacity:1" fill="#6f7277" d="M 359.5,449.5 C 356.829,451.118 353.829,451.785 350.5,451.5C 353.273,450.343 356.273,449.676 359.5,449.5 Z"/></g>
<g><path style="opacity:1" fill="#73767b" d="M 305.5,449.5 C 303.369,450.314 301.036,450.814 298.5,451C 315.497,451.5 332.497,451.667 349.5,451.5C 330.671,452.662 311.671,452.829 292.5,452C 296.539,449.95 300.872,449.116 305.5,449.5 Z"/></g>
<g><path style="opacity:1" fill="#66696e" d="M 175.5,450.5 C 175.435,453.428 174.768,456.095 173.5,458.5C 173.294,455.505 173.96,452.838 175.5,450.5 Z"/></g>
<g><path style="opacity:1" fill="#626569" d="M 154.5,464.5 C 153.833,463.5 153.167,462.5 152.5,461.5C 152.461,460.244 152.961,459.244 154,458.5C 154.495,460.473 154.662,462.473 154.5,464.5 Z"/></g>
<g><path style="opacity:1" fill="#6b6e73" d="M 173.5,462.5 C 173.237,467.124 172.237,471.458 170.5,475.5C 170.952,471.837 171.452,468.17 172,464.5C 172.278,463.584 172.778,462.918 173.5,462.5 Z"/></g>
<g><path style="opacity:1" fill="#aeb2ba" d="M 168.5,477.5 C 167.757,467.823 167.423,458.156 167.5,448.5C 167.987,447.527 168.487,446.527 169,445.5C 169.245,456.167 169.079,466.833 168.5,477.5 Z"/></g>
<g><path style="opacity:1" fill="#7f8388" d="M 162.5,469.5 C 161.659,476.465 161.326,483.465 161.5,490.5C 160.835,487.686 160.502,484.686 160.5,481.5C 160.278,477.203 160.945,473.203 162.5,469.5 Z"/></g>
<g><path style="opacity:1" fill="#969aa1" d="M 154.5,468.5 C 155.222,468.918 155.722,469.584 156,470.5C 156.591,476.498 157.091,482.498 157.5,488.5C 155.906,482.057 154.906,475.39 154.5,468.5 Z"/></g>
<g><path style="opacity:1" fill="#92969d" d="M 271.5,500.5 C 262.284,504.096 252.617,506.096 242.5,506.5C 252.032,504.407 261.699,502.407 271.5,500.5 Z"/></g>
<g><path style="opacity:1" fill="#0a090c" d="M 606.5,518.5 C 602.21,518.198 598.21,518.864 594.5,520.5C 574.407,522.985 554.74,526.985 535.5,532.5C 532.848,532.41 530.515,533.076 528.5,534.5C 517.177,537.076 506.177,540.41 495.5,544.5C 492.848,544.41 490.515,545.076 488.5,546.5C 441.778,563.358 396.111,582.858 351.5,605C 310.491,620.914 268.491,632.748 225.5,640.5C 217.652,641.145 209.986,642.145 202.5,643.5C 201.833,643.5 201.167,643.5 200.5,643.5C 196.21,643.198 192.21,643.864 188.5,645.5C 173.197,646.998 157.864,647.498 142.5,647C 139.833,644.667 139.833,642.333 142.5,640C 165.118,637.788 187.785,635.621 210.5,633.5C 215.727,633.022 220.727,632.022 225.5,630.5C 242.22,627.321 258.887,623.821 275.5,620C 292.397,614.355 309.397,608.855 326.5,603.5C 330.936,602.586 334.936,600.919 338.5,598.5C 377.182,580.83 416.182,563.664 455.5,547C 483.09,535.97 511.423,527.47 540.5,521.5C 542.898,521.741 544.898,521.074 546.5,519.5C 547.167,519.5 547.833,519.5 548.5,519.5C 551.152,519.59 553.485,518.924 555.5,517.5C 576.67,513.267 598.004,509.934 619.5,507.5C 622.433,507.466 625.1,508.299 627.5,510C 628.747,511.494 628.747,512.994 627.5,514.5C 620.626,516.553 613.626,517.886 606.5,518.5 Z"/></g>
<g><path style="opacity:1" fill="#616469" d="M 145.5,496.5 C 145.638,501.414 144.972,506.081 143.5,510.5C 143.362,505.586 144.028,500.919 145.5,496.5 Z"/></g>
<g><path style="opacity:1" fill="#333437" d="M 223.5,514.5 C 223.389,515.117 223.056,515.617 222.5,516C 219.475,516.361 216.475,516.861 213.5,517.5C 212.584,517.457 211.917,517.124 211.5,516.5C 215.476,515.705 219.476,515.038 223.5,514.5 Z"/></g>
<g><path style="opacity:1" fill="#505256" d="M 555.5,517.5 C 553.485,518.924 551.152,519.59 548.5,519.5C 550.515,518.076 552.848,517.41 555.5,517.5 Z"/></g>
<g><path style="opacity:1" fill="#8f939a" d="M 606.5,518.5 C 602.79,520.136 598.79,520.802 594.5,520.5C 598.21,518.864 602.21,518.198 606.5,518.5 Z"/></g>
<g><path style="opacity:1" fill="#4c4e51" d="M 546.5,519.5 C 544.898,521.074 542.898,521.741 540.5,521.5C 542.102,519.926 544.102,519.259 546.5,519.5 Z"/></g>
<g><path style="opacity:1" fill="#787c81" d="M 246.5,532.5 C 244.485,533.924 242.152,534.59 239.5,534.5C 241.515,533.076 243.848,532.41 246.5,532.5 Z"/></g>
<g><path style="opacity:1" fill="#85888e" d="M 535.5,532.5 C 533.485,533.924 531.152,534.59 528.5,534.5C 530.515,533.076 532.848,532.41 535.5,532.5 Z"/></g>
<g><path style="opacity:1" fill="#83878d" d="M 495.5,544.5 C 493.485,545.924 491.152,546.59 488.5,546.5C 490.515,545.076 492.848,544.41 495.5,544.5 Z"/></g>
<g><path style="opacity:1" fill="#3b3d40" d="M 180.5,549.5 C 185.64,550.488 190.974,550.821 196.5,550.5C 190.987,551.816 185.32,551.816 179.5,550.5C 179.624,549.893 179.957,549.56 180.5,549.5 Z"/></g>
<g><path style="opacity:1" fill="#0c0c0e" d="M 141.5,572.5 C 148.646,575.608 155.98,578.441 163.5,581C 164.022,581.561 164.355,582.228 164.5,583C 163.47,585.56 162.303,588.06 161,590.5C 159.951,591.517 158.784,591.684 157.5,591C 151.622,588.032 145.622,585.366 139.5,583C 138.978,582.439 138.645,581.772 138.5,581C 139.803,578.256 140.803,575.423 141.5,572.5 Z"/></g>
<g><path style="opacity:1" fill="#060507" d="M 135.5,590.5 C 142.798,592.377 149.798,595.044 156.5,598.5C 153.853,607.756 151.519,617.09 149.5,626.5C 139.402,631.094 130.902,637.761 124,646.5C 126.386,635.269 125.886,624.103 122.5,613C 126.724,605.379 131.057,597.879 135.5,590.5 Z"/></g>
<g><path style="opacity:1" fill="#45474b" d="M 338.5,598.5 C 334.936,600.919 330.936,602.586 326.5,603.5C 330.064,601.081 334.064,599.414 338.5,598.5 Z"/></g>
<g><path style="opacity:1" fill="#bec3cb" d="M 134.5,613.5 C 139.835,613.005 142.335,615.338 142,620.5C 139,624.5 136,624.5 133,620.5C 132.167,617.829 132.667,615.496 134.5,613.5 Z"/></g>
<g><path style="opacity:1" fill="#83868c" d="M 225.5,630.5 C 220.727,632.022 215.727,633.022 210.5,633.5C 215.184,631.549 220.184,630.549 225.5,630.5 Z"/></g>
<g><path style="opacity:1" fill="#969aa0" d="M 225.5,640.5 C 218.146,642.869 210.479,643.869 202.5,643.5C 209.986,642.145 217.652,641.145 225.5,640.5 Z"/></g>
<g><path style="opacity:1" fill="#8d9197" d="M 200.5,643.5 C 196.79,645.136 192.79,645.802 188.5,645.5C 192.21,643.864 196.21,643.198 200.5,643.5 Z"/></g>
</svg>
